<?xml version="1.0" standalone="no"?><!DOCTYPE svg PUBLIC "-//W3C//DTD SVG 1.1//EN" "http://www.w3.org/Graphics/SVG/1.1/DTD/svg11.dtd"><svg t="1662541509018" class="icon" viewBox="0 0 1024 1024" version="1.1" xmlns="http://www.w3.org/2000/svg" p-id="55861" xmlns:xlink="http://www.w3.org/1999/xlink" width="200" height="200"><path d="M112 112m32 0l736 0q32 0 32 32l0 736q0 32-32 32l-736 0q-32 0-32-32l0-736q0-32 32-32Z" fill="#FFFFFF" p-id="55862"></path><path d="M896 96a32 32 0 0 1 32 32v768a32 32 0 0 1-32 32H128a32 32 0 0 1-32-32V128a32 32 0 0 1 32-32h768z m0 32H128v768h768V128z" fill="#5D6D7E" p-id="55863"></path><path d="M448 256h64v64h-64V256zM352 288h64v64H352V288zM256 352h64v64H256V352z m128 32h64v64H384V384z m160 0h64v64h-64V384z m-64 96h64v64h-64v-64z m-128 64h64v64H352v-64z m-96-64h64v64H256v-64z m160 160h64v64h-64v-64z m128 64h64v64h-64v-64z m-64-128h64v64h-64v-64z m96 32h64v64h-64v-64z m96 96h64v64h-64v-64z m-64-192h64v64h-64v-64z" fill="#27A2DF" p-id="55864"></path><path d="M736 192h64v64h-64V192z m64 128h64v64h-64V320z m-128-64h64v64h-64V256zM192 672h64v64H192v-64z m128 128h64v64H320v-64z" fill="#808FA1" p-id="55865"></path></svg>